<svg width="902" height="795" viewBox="0 0 902 795" fill="none" xmlns="http://www.w3.org/2000/svg">
<rect width="902" height="795" fill="#1E1E1E"/>
<path d="M455.121 56.8786C453.95 55.7071 452.05 55.7071 450.879 56.8786L431.787 75.9705C430.615 77.1421 430.615 79.0416 431.787 80.2132C432.958 81.3847 434.858 81.3847 436.029 80.2132L453 63.2426L469.971 80.2132C471.142 81.3847 473.042 81.3847 474.213 80.2132C475.385 79.0416 475.385 77.1421 474.213 75.9705L455.121 56.8786ZM456 510L456 59H450L450 510H456Z" fill="black"/>
<path d="M59.2555 735.234C58.8266 736.834 59.7764 738.479 61.3768 738.908L87.4568 745.896C89.0572 746.325 90.7022 745.375 91.131 743.775C91.5598 742.175 90.6101 740.53 89.0097 740.101L65.8275 733.889L72.0391 710.707C72.468 709.107 71.5182 707.462 69.9178 707.033C68.3174 706.604 66.6724 707.554 66.2436 709.154L59.2555 735.234ZM451.525 507.742L60.6532 733.412L63.6532 738.609L454.525 512.938L451.525 507.742Z" fill="black"/>
<path d="M845.776 738.908C847.377 738.479 848.327 736.834 847.898 735.234L840.91 709.154C840.481 707.554 838.836 706.604 837.235 707.033C835.635 707.462 834.685 709.107 835.114 710.707L841.326 733.889L818.144 740.101C816.543 740.53 815.593 742.175 816.022 743.775C816.451 745.375 818.096 746.325 819.696 745.896L845.776 738.908ZM452.628 512.938L843.5 738.609L846.5 733.412L455.628 507.742L452.628 512.938Z" fill="black"/>
<path d="M17.8352 761.273V765.534H0.875V761.273H17.8352ZM5.81818 753.432H10.8466V784.625C10.8466 786.045 11.0526 787.111 11.4645 787.821C11.8906 788.517 12.4304 788.986 13.0838 789.227C13.7514 789.455 14.4545 789.568 15.1932 789.568C15.7472 789.568 16.2017 789.54 16.5568 789.483C16.9119 789.412 17.196 789.355 17.4091 789.312L18.4318 793.83C18.0909 793.957 17.6151 794.085 17.0043 794.213C16.3935 794.355 15.6193 794.426 14.6818 794.426C13.2614 794.426 11.8693 794.121 10.5057 793.51C9.15625 792.899 8.03409 791.969 7.1392 790.719C6.25852 789.469 5.81818 787.892 5.81818 785.989V753.432ZM38.7692 794.682C35.6158 794.682 32.8956 793.986 30.6087 792.594C28.3359 791.188 26.5817 789.227 25.3459 786.713C24.1243 784.185 23.5135 781.244 23.5135 777.892C23.5135 774.54 24.1243 771.585 25.3459 769.028C26.5817 766.457 28.3004 764.455 30.5021 763.02C32.718 761.571 35.3033 760.847 38.2578 760.847C39.9624 760.847 41.6456 761.131 43.3075 761.699C44.9695 762.267 46.4822 763.19 47.8459 764.469C49.2095 765.733 50.2962 767.409 51.1058 769.497C51.9155 771.585 52.3203 774.156 52.3203 777.21V779.341H27.093V774.994H47.2067C47.2067 773.148 46.8374 771.5 46.0987 770.051C45.3743 768.602 44.3374 767.459 42.9879 766.621C41.6527 765.783 40.076 765.364 38.2578 765.364C36.255 765.364 34.522 765.861 33.0589 766.855C31.6101 767.835 30.495 769.114 29.7138 770.69C28.9325 772.267 28.5419 773.957 28.5419 775.761V778.659C28.5419 781.131 28.968 783.226 29.8203 784.945C30.6868 786.649 31.8871 787.949 33.4212 788.844C34.9553 789.724 36.7379 790.165 38.7692 790.165C40.0902 790.165 41.2834 789.98 42.3487 789.611C43.4283 789.227 44.3587 788.659 45.1399 787.906C45.9212 787.139 46.5249 786.187 46.951 785.051L51.809 786.415C51.2976 788.062 50.4382 789.511 49.2308 790.761C48.0234 791.997 46.532 792.963 44.7564 793.659C42.9808 794.341 40.9851 794.682 38.7692 794.682ZM73.2649 794.682C70.1967 794.682 67.5547 793.957 65.3388 792.509C63.1229 791.06 61.4183 789.064 60.2251 786.521C59.032 783.979 58.4354 781.074 58.4354 777.807C58.4354 774.483 59.0462 771.55 60.2678 769.007C61.5036 766.45 63.2223 764.455 65.424 763.02C67.6399 761.571 70.2251 760.847 73.1797 760.847C75.4808 760.847 77.5547 761.273 79.4013 762.125C81.2479 762.977 82.7607 764.17 83.9396 765.705C85.1186 767.239 85.8501 769.028 86.1342 771.074H81.1058C80.7223 769.582 79.87 768.261 78.549 767.111C77.2422 765.946 75.4808 765.364 73.2649 765.364C71.3047 765.364 69.5859 765.875 68.1087 766.898C66.6456 767.906 65.5021 769.334 64.6783 771.18C63.8686 773.013 63.4638 775.165 63.4638 777.636C63.4638 780.165 63.8615 782.366 64.657 784.241C65.4666 786.116 66.603 787.572 68.0661 788.609C69.5433 789.646 71.2763 790.165 73.2649 790.165C74.5717 790.165 75.7578 789.938 76.8232 789.483C77.8885 789.028 78.7905 788.375 79.5291 787.523C80.2678 786.67 80.7933 785.648 81.1058 784.455H86.1342C85.8501 786.386 85.147 788.126 84.0249 789.675C82.9169 791.209 81.4467 792.43 79.6143 793.339C77.7962 794.234 75.6797 794.682 73.2649 794.682ZM98.5135 774.312V794H93.4851V750.364H98.5135V766.386H98.9396C99.7067 764.696 100.857 763.354 102.391 762.359C103.94 761.351 105.999 760.847 108.57 760.847C110.8 760.847 112.754 761.294 114.43 762.189C116.106 763.07 117.406 764.426 118.329 766.259C119.266 768.077 119.735 770.392 119.735 773.205V794H114.707V773.545C114.707 770.946 114.032 768.936 112.683 767.516C111.347 766.081 109.494 765.364 107.121 765.364C105.474 765.364 103.996 765.712 102.69 766.408C101.397 767.104 100.374 768.119 99.6214 769.455C98.8828 770.79 98.5135 772.409 98.5135 774.312Z" fill="black"/>
<path d="M786.602 794V761.273H791.46V766.386H791.886C792.568 764.639 793.669 763.283 795.189 762.317C796.709 761.337 798.534 760.847 800.665 760.847C802.824 760.847 804.621 761.337 806.055 762.317C807.504 763.283 808.634 764.639 809.443 766.386H809.784C810.622 764.696 811.879 763.354 813.555 762.359C815.232 761.351 817.241 760.847 819.585 760.847C822.511 760.847 824.905 761.763 826.766 763.595C828.626 765.413 829.557 768.247 829.557 772.097V794H824.528V772.097C824.528 769.682 823.868 767.956 822.547 766.919C821.226 765.882 819.67 765.364 817.881 765.364C815.58 765.364 813.797 766.06 812.533 767.452C811.268 768.83 810.636 770.577 810.636 772.693V794H805.523V771.585C805.523 769.724 804.919 768.226 803.712 767.089C802.504 765.939 800.949 765.364 799.045 765.364C797.739 765.364 796.517 765.712 795.381 766.408C794.259 767.104 793.349 768.07 792.653 769.305C791.972 770.527 791.631 771.94 791.631 773.545V794H786.602ZM852.472 794.682C849.319 794.682 846.599 793.986 844.312 792.594C842.039 791.188 840.285 789.227 839.049 786.713C837.827 784.185 837.217 781.244 837.217 777.892C837.217 774.54 837.827 771.585 839.049 769.028C840.285 766.457 842.004 764.455 844.205 763.02C846.421 761.571 849.006 760.847 851.961 760.847C853.665 760.847 855.349 761.131 857.011 761.699C858.673 762.267 860.185 763.19 861.549 764.469C862.913 765.733 863.999 767.409 864.809 769.497C865.619 771.585 866.023 774.156 866.023 777.21V779.341H840.796V774.994H860.91C860.91 773.148 860.54 771.5 859.802 770.051C859.077 768.602 858.04 767.459 856.691 766.621C855.356 765.783 853.779 765.364 851.961 765.364C849.958 765.364 848.225 765.861 846.762 766.855C845.313 767.835 844.198 769.114 843.417 770.69C842.636 772.267 842.245 773.957 842.245 775.761V778.659C842.245 781.131 842.671 783.226 843.523 784.945C844.39 786.649 845.59 787.949 847.124 788.844C848.658 789.724 850.441 790.165 852.472 790.165C853.793 790.165 854.987 789.98 856.052 789.611C857.131 789.227 858.062 788.659 858.843 787.906C859.624 787.139 860.228 786.187 860.654 785.051L865.512 786.415C865.001 788.062 864.141 789.511 862.934 790.761C861.727 791.997 860.235 792.963 858.46 793.659C856.684 794.341 854.688 794.682 852.472 794.682ZM886.031 794.682C883.303 794.682 880.896 793.993 878.808 792.615C876.719 791.223 875.086 789.263 873.907 786.734C872.728 784.192 872.138 781.188 872.138 777.722C872.138 774.284 872.728 771.301 873.907 768.773C875.086 766.244 876.727 764.291 878.829 762.913C880.931 761.536 883.36 760.847 886.116 760.847C888.246 760.847 889.93 761.202 891.165 761.912C892.415 762.608 893.367 763.403 894.021 764.298C894.688 765.179 895.207 765.903 895.576 766.472H896.002V750.364H901.031V794H896.173V788.972H895.576C895.207 789.568 894.681 790.321 893.999 791.23C893.317 792.125 892.344 792.928 891.08 793.638C889.816 794.334 888.133 794.682 886.031 794.682ZM886.712 790.165C888.729 790.165 890.434 789.639 891.826 788.588C893.218 787.523 894.276 786.053 895.001 784.178C895.725 782.288 896.087 780.108 896.087 777.636C896.087 775.193 895.732 773.055 895.022 771.223C894.312 769.376 893.261 767.942 891.869 766.919C890.477 765.882 888.758 765.364 886.712 765.364C884.582 765.364 882.806 765.911 881.386 767.004C879.979 768.084 878.921 769.554 878.211 771.415C877.515 773.261 877.167 775.335 877.167 777.636C877.167 779.966 877.522 782.082 878.232 783.986C878.957 785.875 880.022 787.381 881.428 788.503C882.849 789.611 884.61 790.165 886.712 790.165Z" fill="black"/>
<path d="M431.074 44H425.534L441.557 0.363635H447.011L463.034 44H457.494L444.455 7.26704H444.114L431.074 44ZM433.119 26.9545H455.449V31.642H433.119V26.9545ZM475.115 0.363635V44H469.831V0.363635H475.115Z" fill="black"/>
</svg>
