<svg width="988" height="903" viewBox="0 0 988 903" fill="none" xmlns="http://www.w3.org/2000/svg">
<path d="M496.121 110.879C494.95 109.707 493.05 109.707 491.879 110.879L472.787 129.971C471.615 131.142 471.615 133.042 472.787 134.213C473.958 135.385 475.858 135.385 477.029 134.213L494 117.243L510.971 134.213C512.142 135.385 514.042 135.385 515.213 134.213C516.385 133.042 516.385 131.142 515.213 129.971L496.121 110.879ZM497 564L497 113H491L491 564H497Z" fill="black"/>
<path d="M100.255 789.234C99.8266 790.834 100.776 792.479 102.377 792.908L128.457 799.896C130.057 800.325 131.702 799.375 132.131 797.775C132.56 796.175 131.61 794.53 130.01 794.101L106.827 787.889L113.039 764.707C113.468 763.107 112.518 761.462 110.918 761.033C109.317 760.604 107.672 761.554 107.244 763.154L100.255 789.234ZM492.525 561.742L101.653 787.412L104.653 792.609L495.525 566.938L492.525 561.742Z" fill="black"/>
<path d="M886.776 792.908C888.377 792.479 889.327 790.834 888.898 789.234L881.91 763.154C881.481 761.554 879.836 760.604 878.235 761.033C876.635 761.462 875.685 763.107 876.114 764.707L882.326 787.889L859.144 794.101C857.543 794.53 856.593 796.175 857.022 797.775C857.451 799.375 859.096 800.325 860.696 799.896L886.776 792.908ZM493.628 566.938L884.5 792.609L887.5 787.412L496.628 561.742L493.628 566.938Z" fill="black"/>
<path d="M58.8352 815.273V819.534H41.875V815.273H58.8352ZM46.8182 807.432H51.8466V838.625C51.8466 840.045 52.0526 841.111 52.4645 841.821C52.8906 842.517 53.4304 842.986 54.0838 843.227C54.7514 843.455 55.4545 843.568 56.1932 843.568C56.7472 843.568 57.2017 843.54 57.5568 843.483C57.9119 843.412 58.196 843.355 58.4091 843.312L59.4318 847.83C59.0909 847.957 58.6151 848.085 58.0043 848.213C57.3935 848.355 56.6193 848.426 55.6818 848.426C54.2614 848.426 52.8693 848.121 51.5057 847.51C50.1563 846.899 49.0341 845.969 48.1392 844.719C47.2585 843.469 46.8182 841.892 46.8182 839.989V807.432ZM79.7692 848.682C76.6158 848.682 73.8956 847.986 71.6087 846.594C69.3359 845.188 67.5817 843.227 66.3459 840.713C65.1243 838.185 64.5135 835.244 64.5135 831.892C64.5135 828.54 65.1243 825.585 66.3459 823.028C67.5817 820.457 69.3004 818.455 71.5021 817.02C73.718 815.571 76.3033 814.847 79.2578 814.847C80.9624 814.847 82.6456 815.131 84.3075 815.699C85.9695 816.267 87.4822 817.19 88.8459 818.469C90.2095 819.733 91.2962 821.409 92.1058 823.497C92.9155 825.585 93.3203 828.156 93.3203 831.21V833.341H68.093V828.994H88.2067C88.2067 827.148 87.8374 825.5 87.0987 824.051C86.3743 822.602 85.3374 821.459 83.9879 820.621C82.6527 819.783 81.076 819.364 79.2578 819.364C77.255 819.364 75.522 819.861 74.0589 820.855C72.6101 821.835 71.495 823.114 70.7138 824.69C69.9325 826.267 69.5419 827.957 69.5419 829.761V832.659C69.5419 835.131 69.968 837.226 70.8203 838.945C71.6868 840.649 72.8871 841.949 74.4212 842.844C75.9553 843.724 77.7379 844.165 79.7692 844.165C81.0902 844.165 82.2834 843.98 83.3487 843.611C84.4283 843.227 85.3587 842.659 86.1399 841.906C86.9212 841.139 87.5249 840.187 87.951 839.051L92.809 840.415C92.2976 842.062 91.4382 843.511 90.2308 844.761C89.0234 845.997 87.532 846.963 85.7564 847.659C83.9808 848.341 81.9851 848.682 79.7692 848.682ZM114.265 848.682C111.197 848.682 108.555 847.957 106.339 846.509C104.123 845.06 102.418 843.064 101.225 840.521C100.032 837.979 99.4354 835.074 99.4354 831.807C99.4354 828.483 100.046 825.55 101.268 823.007C102.504 820.45 104.222 818.455 106.424 817.02C108.64 815.571 111.225 814.847 114.18 814.847C116.481 814.847 118.555 815.273 120.401 816.125C122.248 816.977 123.761 818.17 124.94 819.705C126.119 821.239 126.85 823.028 127.134 825.074H122.106C121.722 823.582 120.87 822.261 119.549 821.111C118.242 819.946 116.481 819.364 114.265 819.364C112.305 819.364 110.586 819.875 109.109 820.898C107.646 821.906 106.502 823.334 105.678 825.18C104.869 827.013 104.464 829.165 104.464 831.636C104.464 834.165 104.862 836.366 105.657 838.241C106.467 840.116 107.603 841.572 109.066 842.609C110.543 843.646 112.276 844.165 114.265 844.165C115.572 844.165 116.758 843.938 117.823 843.483C118.888 843.028 119.79 842.375 120.529 841.523C121.268 840.67 121.793 839.648 122.106 838.455H127.134C126.85 840.386 126.147 842.126 125.025 843.675C123.917 845.209 122.447 846.43 120.614 847.339C118.796 848.234 116.68 848.682 114.265 848.682ZM139.513 828.312V848H134.485V804.364H139.513V820.386H139.94C140.707 818.696 141.857 817.354 143.391 816.359C144.94 815.351 146.999 814.847 149.57 814.847C151.8 814.847 153.754 815.294 155.43 816.189C157.106 817.07 158.406 818.426 159.329 820.259C160.266 822.077 160.735 824.392 160.735 827.205V848H155.707V827.545C155.707 824.946 155.032 822.936 153.683 821.516C152.347 820.081 150.494 819.364 148.121 819.364C146.474 819.364 144.996 819.712 143.69 820.408C142.397 821.104 141.374 822.119 140.621 823.455C139.883 824.79 139.513 826.409 139.513 828.312Z" fill="black"/>
<path d="M827.602 848V815.273H832.46V820.386H832.886C833.568 818.639 834.669 817.283 836.189 816.317C837.709 815.337 839.534 814.847 841.665 814.847C843.824 814.847 845.621 815.337 847.055 816.317C848.504 817.283 849.634 818.639 850.443 820.386H850.784C851.622 818.696 852.879 817.354 854.555 816.359C856.232 815.351 858.241 814.847 860.585 814.847C863.511 814.847 865.905 815.763 867.766 817.595C869.626 819.413 870.557 822.247 870.557 826.097V848H865.528V826.097C865.528 823.682 864.868 821.956 863.547 820.919C862.226 819.882 860.67 819.364 858.881 819.364C856.58 819.364 854.797 820.06 853.533 821.452C852.268 822.83 851.636 824.577 851.636 826.693V848H846.523V825.585C846.523 823.724 845.919 822.226 844.712 821.089C843.504 819.939 841.949 819.364 840.045 819.364C838.739 819.364 837.517 819.712 836.381 820.408C835.259 821.104 834.349 822.07 833.653 823.305C832.972 824.527 832.631 825.94 832.631 827.545V848H827.602ZM893.472 848.682C890.319 848.682 887.599 847.986 885.312 846.594C883.039 845.188 881.285 843.227 880.049 840.713C878.827 838.185 878.217 835.244 878.217 831.892C878.217 828.54 878.827 825.585 880.049 823.028C881.285 820.457 883.004 818.455 885.205 817.02C887.421 815.571 890.006 814.847 892.961 814.847C894.665 814.847 896.349 815.131 898.011 815.699C899.673 816.267 901.185 817.19 902.549 818.469C903.913 819.733 904.999 821.409 905.809 823.497C906.619 825.585 907.023 828.156 907.023 831.21V833.341H881.796V828.994H901.91C901.91 827.148 901.54 825.5 900.802 824.051C900.077 822.602 899.04 821.459 897.691 820.621C896.356 819.783 894.779 819.364 892.961 819.364C890.958 819.364 889.225 819.861 887.762 820.855C886.313 821.835 885.198 823.114 884.417 824.69C883.636 826.267 883.245 827.957 883.245 829.761V832.659C883.245 835.131 883.671 837.226 884.523 838.945C885.39 840.649 886.59 841.949 888.124 842.844C889.658 843.724 891.441 844.165 893.472 844.165C894.793 844.165 895.987 843.98 897.052 843.611C898.131 843.227 899.062 842.659 899.843 841.906C900.624 841.139 901.228 840.187 901.654 839.051L906.512 840.415C906.001 842.062 905.141 843.511 903.934 844.761C902.727 845.997 901.235 846.963 899.46 847.659C897.684 848.341 895.688 848.682 893.472 848.682ZM927.031 848.682C924.303 848.682 921.896 847.993 919.808 846.615C917.719 845.223 916.086 843.263 914.907 840.734C913.728 838.192 913.138 835.188 913.138 831.722C913.138 828.284 913.728 825.301 914.907 822.773C916.086 820.244 917.727 818.291 919.829 816.913C921.931 815.536 924.36 814.847 927.116 814.847C929.246 814.847 930.93 815.202 932.165 815.912C933.415 816.608 934.367 817.403 935.021 818.298C935.688 819.179 936.207 819.903 936.576 820.472H937.002V804.364H942.031V848H937.173V842.972H936.576C936.207 843.568 935.681 844.321 934.999 845.23C934.317 846.125 933.344 846.928 932.08 847.638C930.816 848.334 929.133 848.682 927.031 848.682ZM927.712 844.165C929.729 844.165 931.434 843.639 932.826 842.588C934.218 841.523 935.276 840.053 936.001 838.178C936.725 836.288 937.087 834.108 937.087 831.636C937.087 829.193 936.732 827.055 936.022 825.223C935.312 823.376 934.261 821.942 932.869 820.919C931.477 819.882 929.758 819.364 927.712 819.364C925.582 819.364 923.806 819.911 922.386 821.004C920.979 822.084 919.921 823.554 919.211 825.415C918.515 827.261 918.167 829.335 918.167 831.636C918.167 833.966 918.522 836.082 919.232 837.986C919.957 839.875 921.022 841.381 922.428 842.503C923.849 843.611 925.61 844.165 927.712 844.165Z" fill="black"/>
<path d="M472.074 98H466.534L482.557 54.3636H488.011L504.034 98H498.494L485.455 61.267H485.114L472.074 98ZM474.119 80.9545H496.449V85.642H474.119V80.9545ZM516.115 54.3636V98H510.831V54.3636H516.115Z" fill="black"/>
<rect x="40" y="4" width="59.375" height="30" rx="3" fill="#404040"/>
<rect x="40.5" y="4.5" width="58.375" height="29" rx="2.5" stroke="black" stroke-opacity="0.14902"/>
<path d="M51.3438 16C51.2969 15.6042 51.1068 15.2969 50.7734 15.0781C50.4401 14.8594 50.0313 14.75 49.5469 14.75C49.1927 14.75 48.8828 14.8073 48.6172 14.9219C48.3542 15.0365 48.1484 15.194 48 15.3945C47.8542 15.5951 47.7813 15.8229 47.7813 16.0781C47.7813 16.2917 47.832 16.4753 47.9336 16.6289C48.0378 16.7799 48.1706 16.9062 48.332 17.0078C48.4935 17.1068 48.6628 17.1888 48.8398 17.2539C49.0169 17.3164 49.1797 17.3672 49.3281 17.4062L50.1406 17.625C50.349 17.6797 50.5807 17.7552 50.8359 17.8516C51.0938 17.9479 51.3398 18.0794 51.5742 18.2461C51.8112 18.4102 52.0065 18.6211 52.1602 18.8789C52.3138 19.1367 52.3906 19.4531 52.3906 19.8281C52.3906 20.2604 52.2773 20.651 52.0508 21C51.8268 21.349 51.4987 21.6263 51.0664 21.832C50.6367 22.0378 50.1146 22.1406 49.5 22.1406C48.9271 22.1406 48.431 22.0482 48.0117 21.8633C47.5951 21.6784 47.2669 21.4206 47.0273 21.0898C46.7904 20.7591 46.6563 20.375 46.625 19.9375H47.625C47.651 20.2396 47.7526 20.4896 47.9297 20.6875C48.1094 20.8828 48.3359 21.0286 48.6094 21.125C48.8854 21.2187 49.1823 21.2656 49.5 21.2656C49.8698 21.2656 50.2018 21.2057 50.4961 21.0859C50.7904 20.9635 51.0234 20.7943 51.1953 20.5781C51.3672 20.3594 51.4531 20.1042 51.4531 19.8125C51.4531 19.5469 51.3789 19.3307 51.2305 19.1641C51.082 18.9974 50.8867 18.862 50.6445 18.7578C50.4023 18.6536 50.1406 18.5625 49.8594 18.4844L48.875 18.2031C48.25 18.0234 47.7552 17.7669 47.3906 17.4336C47.026 17.1003 46.8438 16.6641 46.8438 16.125C46.8438 15.6771 46.9648 15.2865 47.207 14.9531C47.4518 14.6172 47.7799 14.3568 48.1914 14.1719C48.6055 13.9844 49.0677 13.8906 49.5781 13.8906C50.0938 13.8906 50.5521 13.9831 50.9531 14.168C51.3542 14.3503 51.6719 14.6003 51.9062 14.918C52.1432 15.2357 52.2682 15.5964 52.2813 16H51.3438ZM56.374 22.125C55.7959 22.125 55.2972 21.9974 54.8779 21.7422C54.4613 21.4844 54.1396 21.125 53.9131 20.6641C53.6891 20.2005 53.5771 19.6615 53.5771 19.0469C53.5771 18.4323 53.6891 17.8906 53.9131 17.4219C54.1396 16.9505 54.4548 16.5833 54.8584 16.3203C55.2646 16.0547 55.7386 15.9219 56.2803 15.9219C56.5928 15.9219 56.9014 15.974 57.2061 16.0781C57.5107 16.1823 57.7881 16.3516 58.0381 16.5859C58.2881 16.8177 58.4873 17.125 58.6357 17.5078C58.7842 17.8906 58.8584 18.362 58.8584 18.9219V19.3125H54.2334V18.5156H57.9209C57.9209 18.1771 57.8532 17.875 57.7178 17.6094C57.585 17.3437 57.3949 17.1341 57.1475 16.9805C56.9027 16.8268 56.6136 16.75 56.2803 16.75C55.9131 16.75 55.5954 16.8411 55.3271 17.0234C55.0615 17.2031 54.8571 17.4375 54.7139 17.7266C54.5706 18.0156 54.499 18.3255 54.499 18.6562V19.1875C54.499 19.6406 54.5771 20.0247 54.7334 20.3398C54.8923 20.6523 55.1123 20.8906 55.3936 21.0547C55.6748 21.2161 56.0016 21.2969 56.374 21.2969C56.6162 21.2969 56.835 21.263 57.0303 21.1953C57.2282 21.125 57.3988 21.0208 57.542 20.8828C57.6852 20.7422 57.7959 20.5677 57.874 20.3594L58.7646 20.6094C58.6709 20.9115 58.5133 21.1771 58.292 21.4062C58.0706 21.6328 57.7972 21.8099 57.4717 21.9375C57.1462 22.0625 56.7803 22.125 56.374 22.125ZM62.6982 22.125C62.1357 22.125 61.6514 21.9922 61.2451 21.7266C60.8389 21.4609 60.5264 21.0951 60.3076 20.6289C60.0889 20.1628 59.9795 19.6302 59.9795 19.0312C59.9795 18.4219 60.0915 17.8841 60.3154 17.418C60.542 16.9492 60.8571 16.5833 61.2607 16.3203C61.667 16.0547 62.141 15.9219 62.6826 15.9219C63.1045 15.9219 63.4847 16 63.8232 16.1562C64.1618 16.3125 64.4391 16.5312 64.6553 16.8125C64.8714 17.0937 65.0055 17.4219 65.0576 17.7969H64.1357C64.0654 17.5234 63.9092 17.2812 63.667 17.0703C63.4274 16.8568 63.1045 16.75 62.6982 16.75C62.3389 16.75 62.0238 16.8437 61.7529 17.0312C61.4847 17.2161 61.2751 17.4779 61.124 17.8164C60.9756 18.1523 60.9014 18.5469 60.9014 19C60.9014 19.4635 60.9743 19.8672 61.1201 20.2109C61.2686 20.5547 61.4769 20.8216 61.7451 21.0117C62.016 21.2018 62.3337 21.2969 62.6982 21.2969C62.9378 21.2969 63.1553 21.2552 63.3506 21.1719C63.5459 21.0885 63.7113 20.9688 63.8467 20.8125C63.9821 20.6562 64.0785 20.4687 64.1357 20.25H65.0576C65.0055 20.6042 64.8766 20.9232 64.6709 21.207C64.4678 21.4883 64.1982 21.7122 63.8623 21.8789C63.529 22.043 63.141 22.125 62.6982 22.125ZM69.0146 16V16.7812H65.9053V16H69.0146ZM66.8115 14.5625H67.7334V20.2812C67.7334 20.5417 67.7712 20.737 67.8467 20.8672C67.9248 20.9948 68.0238 21.0807 68.1436 21.125C68.266 21.1667 68.3949 21.1875 68.5303 21.1875C68.6318 21.1875 68.7152 21.1823 68.7803 21.1719C68.8454 21.1589 68.8975 21.1484 68.9365 21.1406L69.124 21.9687C69.0615 21.9922 68.9743 22.0156 68.8623 22.0391C68.7503 22.0651 68.6084 22.0781 68.4365 22.0781C68.1761 22.0781 67.9209 22.0221 67.6709 21.9102C67.4235 21.7982 67.2178 21.6276 67.0537 21.3984C66.8923 21.1693 66.8115 20.8802 66.8115 20.5312V14.5625ZM70.4014 22V16H71.3232V22H70.4014ZM70.8701 15C70.6904 15 70.5355 14.9388 70.4053 14.8164C70.2777 14.694 70.2139 14.5469 70.2139 14.375C70.2139 14.2031 70.2777 14.056 70.4053 13.9336C70.5355 13.8112 70.6904 13.75 70.8701 13.75C71.0498 13.75 71.2035 13.8112 71.3311 13.9336C71.4613 14.056 71.5264 14.2031 71.5264 14.375C71.5264 14.5469 71.4613 14.694 71.3311 14.8164C71.2035 14.9388 71.0498 15 70.8701 15ZM75.4492 22.125C74.9076 22.125 74.4323 21.9961 74.0234 21.7383C73.6172 21.4805 73.2995 21.1198 73.0703 20.6562C72.8438 20.1927 72.7305 19.651 72.7305 19.0312C72.7305 18.4062 72.8438 17.8607 73.0703 17.3945C73.2995 16.9284 73.6172 16.5664 74.0234 16.3086C74.4323 16.0508 74.9076 15.9219 75.4492 15.9219C75.9909 15.9219 76.4648 16.0508 76.8711 16.3086C77.2799 16.5664 77.5977 16.9284 77.8242 17.3945C78.0534 17.8607 78.168 18.4062 78.168 19.0312C78.168 19.651 78.0534 20.1927 77.8242 20.6562C77.5977 21.1198 77.2799 21.4805 76.8711 21.7383C76.4648 21.9961 75.9909 22.125 75.4492 22.125ZM75.4492 21.2969C75.8607 21.2969 76.1992 21.1914 76.4648 20.9805C76.7305 20.7695 76.9271 20.4922 77.0547 20.1484C77.1823 19.8047 77.2461 19.4323 77.2461 19.0312C77.2461 18.6302 77.1823 18.2565 77.0547 17.9102C76.9271 17.5638 76.7305 17.2839 76.4648 17.0703C76.1992 16.8568 75.8607 16.75 75.4492 16.75C75.0378 16.75 74.6992 16.8568 74.4336 17.0703C74.168 17.2839 73.9714 17.5638 73.8438 17.9102C73.7161 18.2565 73.6523 18.6302 73.6523 19.0312C73.6523 19.4323 73.7161 19.8047 73.8438 20.1484C73.9714 20.4922 74.168 20.7695 74.4336 20.9805C74.6992 21.1914 75.0378 21.2969 75.4492 21.2969ZM80.4971 18.3906V22H79.5752V16H80.4658V16.9375H80.5439C80.6846 16.6328 80.8981 16.388 81.1846 16.2031C81.471 16.0156 81.8408 15.9219 82.2939 15.9219C82.7002 15.9219 83.0557 16.0052 83.3604 16.1719C83.665 16.3359 83.902 16.5859 84.0713 16.9219C84.2406 17.2552 84.3252 17.6771 84.3252 18.1875V22H83.4033V18.25C83.4033 17.7786 83.2809 17.4115 83.0361 17.1484C82.7913 16.8828 82.4554 16.75 82.0283 16.75C81.734 16.75 81.471 16.8138 81.2393 16.9414C81.0101 17.069 80.8291 17.2552 80.6963 17.5C80.5635 17.7448 80.4971 18.0417 80.4971 18.3906ZM91.9004 14V22H90.9316V15.0156H90.8848L88.9316 16.3125V15.3281L90.9316 14H91.9004Z" fill="white"/>
</svg>
